<?xml version="1.0" encoding="utf-8"?>
<!-- Generator: Adobe Illustrator 17.0.2, SVG Export Plug-In . SVG Version: 6.00 Build 0)  -->
<!DOCTYPE svg PUBLIC "-//W3C//DTD SVG 1.1//EN" "http://www.w3.org/Graphics/SVG/1.1/DTD/svg11.dtd">
<svg version="1.1" id="Layer_1" xmlns="http://www.w3.org/2000/svg" xmlns:xlink="http://www.w3.org/1999/xlink" x="0px" y="0px"
	 width="63px" height="63px" viewBox="0 0 63 63" enable-background="new 0 0 63 63" xml:space="preserve">
<g>
	<path fill="#FDF5A6" d="M31.5,63C14.131,63,0,48.869,0,31.5C0,14.131,14.131,0,31.5,0C48.869,0,63,14.131,63,31.5
		C63,48.869,48.869,63,31.5,63z M31.5,2C15.233,2,2,15.233,2,31.5C2,47.766,15.233,61,31.5,61C47.766,61,61,47.766,61,31.5
		C61,15.233,47.766,2,31.5,2z"/>
</g>
<g>
	<g>
		<path fill="#FDF5A6" d="M38.424,18.056H24.467c-0.784,0-1.421,0.657-1.421,1.467v26.302c0,0.811,0.637,1.467,1.421,1.467h13.957
			c0.784,0,1.421-0.656,1.421-1.467V19.522C39.845,18.712,39.209,18.056,38.424,18.056z M38.795,45.824
			c0,0.211-0.166,0.384-0.371,0.384H24.467c-0.205,0-0.371-0.172-0.371-0.384v-5.027h14.7V45.824z M38.795,39.715h-14.7V22.409h14.7
			V39.715z M38.795,21.326h-14.7v-1.804c0-0.211,0.166-0.384,0.371-0.384h13.957c0.205,0,0.371,0.173,0.371,0.384V21.326z
			 M33.546,42.96h-4.2v1.083h4.2V42.96z"/>
	</g>
</g>
</svg>
