<?xml version="1.0" encoding="utf-8"?>
<!-- Generator: Adobe Illustrator 17.0.2, SVG Export Plug-In . SVG Version: 6.00 Build 0)  -->
<!DOCTYPE svg PUBLIC "-//W3C//DTD SVG 1.1//EN" "http://www.w3.org/Graphics/SVG/1.1/DTD/svg11.dtd">
<svg version="1.1" id="Layer_1" xmlns="http://www.w3.org/2000/svg" xmlns:xlink="http://www.w3.org/1999/xlink" x="0px" y="0px"
	 width="62.066px" height="61.374px" viewBox="0 0 62.066 61.374" enable-background="new 0 0 62.066 61.374" xml:space="preserve">
<g>
	<g>
		<path fill="#FDF5A6" d="M43.44,24.296v-5.528l-0.72,0.002l-4.808,0.017l0.018,5.527L43.44,24.296z M30.907,37.059
			c3.165,0,5.742-2.575,5.742-5.739c0-1.25-0.407-2.406-1.087-3.348c-1.043-1.445-2.739-2.394-4.654-2.394
			c-1.917,0-3.61,0.949-4.654,2.394c-0.68,0.942-1.086,2.097-1.086,3.348C25.167,34.484,27.743,37.059,30.907,37.059z M31.056,0.863
			c-16.568,0-30,13.43-30,29.997c0,16.568,13.432,30,30,30c16.567,0,29.999-13.432,29.999-30
			C61.055,14.293,47.623,0.863,31.056,0.863z M47.215,41.324c0,3.475-2.828,6.302-6.303,6.302h-20.01
			c-3.475,0-6.302-2.827-6.302-6.302v-20.01c0-3.475,2.827-6.302,6.302-6.302h20.01c3.475,0,6.303,2.827,6.303,6.302V41.324z
			 M39.825,31.32c0,4.916-4,8.918-8.918,8.918c-4.918,0-8.917-4.002-8.917-8.918c0-1.185,0.236-2.313,0.656-3.348h-4.868v13.352
			c0,1.724,1.402,3.126,3.124,3.126h20.01c1.724,0,3.125-1.401,3.125-3.126V27.972h-4.871C39.588,29.007,39.825,30.135,39.825,31.32
			z"/>
	</g>
</g>
</svg>
