<?xml version="1.0" encoding="utf-8"?>
<!-- Generator: Adobe Illustrator 17.1.0, SVG Export Plug-In . SVG Version: 6.00 Build 0)  -->
<!DOCTYPE svg PUBLIC "-//W3C//DTD SVG 1.1//EN" "http://www.w3.org/Graphics/SVG/1.1/DTD/svg11.dtd">
<svg version="1.1" id="Layer_1" xmlns="http://www.w3.org/2000/svg" xmlns:xlink="http://www.w3.org/1999/xlink" x="0px" y="0px"
	 viewBox="0 0 244 141.8" enable-background="new 0 0 244 141.8" xml:space="preserve">
<ellipse opacity="0.15" fill="#083B47" cx="122" cy="138.1" rx="122" ry="3.7"/>
<rect x="27" y="6.4" fill="#FDF4A5" width="190.7" height="117"/>
<path fill="#AFDCF5" d="M219.8,0H24.8c-1.6,0-2.8,1.3-2.8,2.8v125.1c0,1.6,1.3,2.8,2.8,2.8h195.1c1.6,0,2.8-1.3,2.8-2.8V2.8
	C222.7,1.3,221.4,0,219.8,0z M212.2,117.4c0,0.5-0.4,0.8-0.9,0.8h-178c-0.5,0-0.9-0.4-0.9-0.8V11.3c0-0.5,0.4-0.8,0.9-0.8h178
	c0.5,0,0.9,0.4,0.9,0.8V117.4z"/>
<path fill="#CFECF8" d="M229,137.2H15.6c-0.4,0-0.8-0.2-1.1-0.4L7,129.3c-0.8-0.8-0.1-2,1.1-2h228.4c1.2,0,1.9,1.2,1.1,2l-7.5,7.4
	C229.8,137,229.4,137.2,229,137.2z"/>
<path fill="#06ACE1" d="M122.3,26.8c-20.4,0-37,16.6-37,37c0,20.4,16.6,37,37,37s37-16.6,37-37C159.3,43.3,142.7,26.8,122.3,26.8z
	 M132.1,63.6h-6.4c0,10.2,0,22.9,0,22.9h-9.5c0,0,0-12.5,0-22.9h-4.5v-8.1h4.5v-5.2c0-3.7,1.8-9.6,9.6-9.6l7,0v7.8c0,0-4.3,0-5.1,0
	c-0.8,0-2,0.4-2,2.2v4.8h7.2L132.1,63.6z"/>
</svg>
