<?xml version="1.0" encoding="utf-8"?>
<!-- Generator: Adobe Illustrator 17.0.2, SVG Export Plug-In . SVG Version: 6.00 Build 0)  -->
<!DOCTYPE svg PUBLIC "-//W3C//DTD SVG 1.1//EN" "http://www.w3.org/Graphics/SVG/1.1/DTD/svg11.dtd">
<svg version="1.1" id="Layer_1" xmlns="http://www.w3.org/2000/svg" xmlns:xlink="http://www.w3.org/1999/xlink" x="0px" y="0px"
	 width="26.083px" height="43.833px" viewBox="0 0 26.083 43.833" enable-background="new 0 0 26.083 43.833" xml:space="preserve">
<g>
	<g>
		<path fill="#FDF5A6" d="M23.47,0.459H2.699c-1.167,0-2.115,0.966-2.115,2.157v38.686c0,1.193,0.948,2.157,2.115,2.157h20.77
			c1.167,0,2.115-0.964,2.115-2.157V2.617C25.584,1.425,24.637,0.459,23.47,0.459z M24.022,41.302c0,0.311-0.247,0.565-0.552,0.565
			H2.699c-0.305,0-0.552-0.254-0.552-0.565v-7.394h21.875V41.302z M24.022,32.316H2.147V6.863h21.875V32.316z M24.022,5.27H2.147
			V2.617c0-0.311,0.247-0.565,0.552-0.565h20.77c0.305,0,0.552,0.254,0.552,0.565V5.27z M16.209,37.089h-6.25v1.592h6.25V37.089z"/>
	</g>
</g>
</svg>
