<?xml version="1.0" encoding="utf-8"?>
<!-- Generator: Adobe Illustrator 17.0.2, SVG Export Plug-In . SVG Version: 6.00 Build 0)  -->
<!DOCTYPE svg PUBLIC "-//W3C//DTD SVG 1.1//EN" "http://www.w3.org/Graphics/SVG/1.1/DTD/svg11.dtd">
<svg version="1.1" id="Layer_1" xmlns="http://www.w3.org/2000/svg" xmlns:xlink="http://www.w3.org/1999/xlink" x="0px" y="0px"
	 width="63px" height="63px" viewBox="0 0 63 63" enable-background="new 0 0 63 63" xml:space="preserve">
<g>
	<path fill="#FDF5A6" d="M31.5,63C14.131,63,0,48.869,0,31.5C0,14.131,14.131,0,31.5,0C48.869,0,63,14.131,63,31.5
		C63,48.869,48.869,63,31.5,63z M31.5,2C15.233,2,2,15.233,2,31.5C2,47.766,15.233,61,31.5,61C47.766,61,61,47.766,61,31.5
		C61,15.233,47.766,2,31.5,2z"/>
</g>
<path fill="#FDF5A6" d="M45.86,18.698c-0.353-0.35-0.814-0.524-1.276-0.524c-0.463,0-0.924,0.175-1.276,0.524l-5.31,5.267v-0.999
	H18.75v22.67h22.857v-19.09h-1.107l5.36-5.317C46.566,20.532,46.566,19.397,45.86,18.698z M40.404,44.443H19.953V24.159h17.849
	l-9.428,9.349v2.582h2.504l9.526-9.45V44.443z M45.009,20.385L30.38,34.897h-0.802v-0.895l14.582-14.461
	c0.153-0.151,0.331-0.175,0.425-0.175c0.093,0,0.273,0.023,0.425,0.175c0.154,0.153,0.177,0.331,0.177,0.423
	C45.187,20.056,45.163,20.233,45.009,20.385z"/>
</svg>
