<?xml version="1.0" encoding="utf-8"?>
<!-- Generator: Adobe Illustrator 17.1.0, SVG Export Plug-In . SVG Version: 6.00 Build 0)  -->
<!DOCTYPE svg PUBLIC "-//W3C//DTD SVG 1.1//EN" "http://www.w3.org/Graphics/SVG/1.1/DTD/svg11.dtd">
<svg version="1.1" id="Layer_1" xmlns="http://www.w3.org/2000/svg" xmlns:xlink="http://www.w3.org/1999/xlink" x="0px" y="0px"
	 viewBox="0 0 63 63" enable-background="new 0 0 63 63" xml:space="preserve">
<g>
	<g>
		<g>
			<path fill="#FDF5A6" d="M31.5,63C14.1,63,0,48.8,0,31.5S14.1,0,31.5,0S63,14.1,63,31.5S48.9,63,31.5,63z M31.5,2
				C15.2,2,2,15.2,2,31.5C2,47.7,15.2,61,31.5,61C47.8,61,61,47.7,61,31.5C61,15.2,47.8,2,31.5,2z"/>
		</g>
	</g>
	<g>
		<path fill="#FDF5A6" d="M44.9,32.7c-1.2,0-2.4-0.6-3-1.6c-0.2-0.3-0.4-0.7-0.5-1.1l-0.2-0.7l-0.7,0.2c-0.5,0.2-1.1,0.3-1.7,0.3
			c-1.6,0-3.2-0.8-4.1-2.1c-1-1.4-1.2-3.2-0.4-4.8l0.3-0.7l-0.7-0.2c-0.8-0.2-1.5-0.7-1.9-1.4c-0.7-1.1-0.8-2.5-0.3-3.6l0.5-1
			l-1.1,0c-8.5,0.2-15.1,7.1-15.1,15.5c0,8.6,7,15.6,15.6,15.6c7.9,0,14.6-6,15.5-13.8l0.1-1l-1,0.3C45.7,32.6,45.3,32.7,44.9,32.7z
			 M31.5,45.7c-7.9,0-14.2-6.4-14.2-14.2c0-7.4,5.5-13.5,12.9-14.2c-0.3,1.4-0.1,2.8,0.7,4c0.5,0.7,1.2,1.3,2,1.7
			c-0.6,1.9-0.3,3.9,0.8,5.5c1.2,1.7,3.1,2.7,5.2,2.7c0.5,0,1-0.1,1.5-0.2c0.1,0.3,0.3,0.6,0.5,0.9c1,1.5,2.9,2.3,4.7,2.1
			C44.3,40.8,38.5,45.7,31.5,45.7z"/>
		<path fill="#FDF5A6" d="M26.5,29.8c0.1,0,0.3,0,0.4-0.1c0.1-0.1,0.1-0.2,0.1-0.3l0.2-1.2L25.5,28l0,0.5c-0.1,0-0.1,0.1-0.1,0.1
			c-0.1,0.1-0.1,0.3-0.1,0.4C25.3,29.5,25.9,29.8,26.5,29.8L26.5,29.8z"/>
		<path fill="#FDF5A6" d="M42.2,36.4c-0.1-0.1-0.1-0.1-0.2-0.1c-0.6-0.2-1.2-0.2-1.8,0l-0.1,0l0,0.1c-0.1,0.3-0.3,0.6-0.2,1
			c0,0.3,0.3,0.7,0.7,0.7c0,0,0.1,0,0.1,0c0.1,0,0.1,0,0.2-0.1c0.1,0,0.1,0,0.2,0c0.1,0,0.1,0,0.2,0.1c0.1,0,0.2,0.1,0.3,0.1
			c0,0,0.1,0,0.1,0c0.3,0,0.6-0.2,0.7-0.5c0.1-0.3,0.1-0.6,0-0.9C42.4,36.7,42.3,36.5,42.2,36.4z"/>
		<path fill="#FDF5A6" d="M27.8,40.7L27.8,40.7c-0.1,0-0.2-0.1-0.3-0.1c-0.3-0.1-0.6-0.2-0.9-0.2c-0.2,0-0.4,0-0.5,0.1
			c-0.4,0.2-0.6,0.7-0.6,1.4c0,0.3,0,0.6,0.2,0.8c0.1,0.2,0.4,0.3,0.8,0.4c0.1,0,0.2,0,0.4,0c0.6,0,1.1-0.2,1.4-0.6
			c0.2-0.3,0.3-0.6,0.2-1C28.3,41.2,28,40.9,27.8,40.7z"/>
		<path fill="#FDF5A6" d="M25.6,23.8c0.4,0.3,0.8,0.4,1.1,0.4h0c0.2,0,0.3,0,0.4-0.1c0.3-0.2,0.5-0.6,0.4-1
			c-0.1-0.3-0.3-0.6-0.7-0.9c0,0-0.1-0.1-0.1-0.1l0,0l0,0c-0.1,0-0.1-0.1-0.2-0.1c-0.1,0-0.3,0-0.4,0c-0.2,0-0.4,0-0.6,0.1
			c-0.2,0.1-0.4,0.2-0.4,0.4c-0.1,0.2-0.1,0.5,0,0.7C25.2,23.4,25.3,23.6,25.6,23.8z M26.7,24L26.7,24L26.7,24L26.7,24z"/>
		<path fill="#FDF5A6" d="M31.9,35.1C31.8,35,31.7,35,31.6,35c-0.1,0-0.1,0-0.2,0.1c0,0-0.1,0-0.2,0C30.9,35,30.4,34.9,30,35
			c-0.5,0.1-0.9,0.4-1,0.8c0,0.1,0,0.3,0,0.4c0,0.2,0,0.4,0.1,0.7c0.3,0.6,0.9,0.8,1.4,0.9c0.2,0.1,0.5,0.1,0.7,0.1
			c0.2,0,0.4,0,0.5-0.1c0.4-0.2,0.6-0.6,0.6-1.1c0-0.4-0.2-0.8-0.3-1.2C32.1,35.4,32,35.2,31.9,35.1z"/>
		<path fill="#FDF5A6" d="M19.8,30.7c-0.3-0.1-0.7-0.2-1-0.1c-0.1,0-0.2,0-0.2,0.1c0,0,0,0.1,0,0.1c0,0,0,0,0,0
			c-0.3,0.4-0.4,0.9-0.2,1.4c0.1,0.3,0.4,0.6,0.6,0.7c0.1,0.1,0.3,0.1,0.4,0.1c0.2,0,0.4,0,0.5-0.1c0.1-0.1,0.2-0.1,0.2-0.2
			c0-0.1,0.1-0.1,0.1-0.2c0.1-0.3,0.2-0.7,0.1-1C20.4,31.2,20.2,30.9,19.8,30.7z"/>
		<path fill="#FDF5A6" d="M38.3,18.5c0.3,0.1,0.6,0,0.8-0.2c0.2-0.2,0.4-0.5,0.5-0.7c0.1-0.1,0.1-0.2,0.1-0.3c0-0.3-0.1-0.6-0.4-0.7
			c-0.2-0.1-0.5-0.2-0.8-0.2c-0.3,0-0.6,0.1-0.9,0.2c-0.1,0.5,0,1.1,0.2,1.5C38,18.2,38.2,18.3,38.3,18.5z"/>
		<path fill="#FDF5A6" d="M38,24.1c0.2,0.2,0.5,0.1,0.7-0.1c0.2-0.2,0.2-0.5,0.1-0.7c-0.2-0.1-0.5-0.1-0.7-0.1
			C38,23.5,37.9,23.8,38,24.1z"/>
		<path fill="#FDF5A6" d="M45.2,22c0.2,0,0.4-0.1,0.5-0.4c0-0.2-0.1-0.4-0.3-0.5c-0.4-0.3-0.9-0.3-1.3,0c0,0.1,0,0.3,0,0.4
			C44.4,21.8,44.8,22.1,45.2,22z"/>
		<path fill="#FDF5A6" d="M47.5,27.3c-0.1-0.1-0.3-0.3-0.4-0.2c-0.1,0-0.2,0.1-0.2,0.2c-0.1,0.1-0.2,0.2-0.4,0.4
			c-0.1,0.1-0.2,0.2-0.3,0.4c-0.1,0.3,0.1,0.7,0.5,0.8c0.4,0.1,0.7-0.1,0.9-0.5S47.7,27.6,47.5,27.3z"/>
		<path fill="#FDF5A6" d="M42.3,27.3c0.3,0,0.5-0.3,0.8-0.3c0.2,0,0.4,0.1,0.5,0c0,0,0.1-0.1,0.1-0.2c0.1-0.5,0-1-0.3-1.3
			c-0.4-0.3-1.1-0.3-1.4,0.2c-0.1,0.1-0.2,0.3-0.2,0.4c-0.1,0.3-0.1,0.5,0,0.8S42,27.3,42.3,27.3z"/>
	</g>
</g>
</svg>
