<?xml version="1.0" encoding="utf-8"?>
<!-- Generator: Adobe Illustrator 17.0.2, SVG Export Plug-In . SVG Version: 6.00 Build 0)  -->
<!DOCTYPE svg PUBLIC "-//W3C//DTD SVG 1.1//EN" "http://www.w3.org/Graphics/SVG/1.1/DTD/svg11.dtd">
<svg version="1.1" id="Layer_1" xmlns="http://www.w3.org/2000/svg" xmlns:xlink="http://www.w3.org/1999/xlink" x="0px" y="0px"
	 width="62.066px" height="61.374px" viewBox="0 0 62.066 61.374" enable-background="new 0 0 62.066 61.374" xml:space="preserve">
<path fill="#FDF5A6" d="M31.033,0.704c-16.696,0-30.232,13.427-30.232,29.984c0,16.559,13.536,29.982,30.232,29.982
	c16.696,0,30.232-13.423,30.232-29.982C61.265,14.131,47.729,0.704,31.033,0.704z M39.036,30.562h-5.234c0,8.298,0,18.517,0,18.517
	h-7.761c0,0,0-10.114,0-18.517h-3.689v-6.538h3.689v-4.236c0-3.032,1.452-7.765,7.831-7.765l5.745,0.022v6.35c0,0-3.494,0-4.173,0
	c-0.68,0-1.644,0.338-1.644,1.779v3.85h5.914L39.036,30.562z"/>
</svg>
