<?xml version="1.0" encoding="utf-8"?>
<!-- Generator: Adobe Illustrator 17.0.2, SVG Export Plug-In . SVG Version: 6.00 Build 0)  -->
<!DOCTYPE svg PUBLIC "-//W3C//DTD SVG 1.1//EN" "http://www.w3.org/Graphics/SVG/1.1/DTD/svg11.dtd">
<svg version="1.1" id="Layer_1" xmlns="http://www.w3.org/2000/svg" xmlns:xlink="http://www.w3.org/1999/xlink" x="0px" y="0px"
	 width="172.995px" height="38.996px" viewBox="0 0 172.995 38.996" enable-background="new 0 0 172.995 38.996"
	 xml:space="preserve">
<g>
	<g>
		<path fill="#FFFFFF" d="M11.788,25.482c-0.8-0.904-1.211-2.074-1.992-3.01c-1.234-1.481-3.207-2.452-5.239-2.109
			c-4.017,0.686-5.839,5.099-3.568,8.16c3.246,4.374,10.545,3.617,14.291,0.587c1.167-0.943,2.256-1.991,3.169-3.234
			c-0.801,0.685-1.959,0.914-2.683,1C14.29,27.05,12.763,26.588,11.788,25.482z M168.439,20.364
			c-2.031-0.344-4.004,0.627-5.24,2.108c-0.78,0.936-1.192,2.105-1.992,3.01c-0.974,1.107-2.502,1.568-3.977,1.394
			c-0.727-0.086-1.881-0.315-2.684-1.001c0.912,1.243,2.003,2.293,3.171,3.235c3.744,3.03,11.043,3.787,14.287-0.587
			C174.276,25.462,172.453,21.049,168.439,20.364z M69.584,31.778c-1.456,0-2.318,1.154-2.562,1.531l-0.008,0.006
			c0-0.382-0.002-0.683-0.002-0.699c-0.021-0.664-0.674-1.161-1.345-1.192c-0.713-0.034-1.42,0.499-1.455,1.192
			c-0.003,0.09-0.003,5.052,0,5.119c0.022,0.664,0.674,1.212,1.345,1.244c0.713,0.033,1.419-0.551,1.455-1.244
			c0.002-0.051,0.003-1.67,0.002-3.065l0.012-0.007c0.12-0.535,0.44-1.083,0.924-1.083c0.626,0,0.66,0.656,0.663,0.656l-0.006,3.499
			c0.022,0.664,0.674,1.212,1.345,1.244c0.713,0.033,1.419-0.551,1.455-1.244l-0.004-1.828
			C71.402,34.026,71.611,31.77,69.584,31.778z M85.051,33.952c0-1.859-2.23-2.472-3.552-2.472c-2.183,0-3.779,1.64-3.779,3.806
			c0,2.438,2.077,3.675,3.802,3.675c3.037,0,3.183-2.328,3.183-2.328s-0.431,0.556-2.103,0.556c-1.673,0-2.032-1.225-2.032-1.225
			C83.006,35.965,85.051,35.811,85.051,33.952z M81.403,34.774c-0.059,0.012-1.001,0.056-0.993-0.002v0
			c0.085-0.593,0.237-1.341,0.804-1.688c0.471-0.288,1.129,0.04,1.14,0.594C82.364,34.264,81.963,34.663,81.403,34.774z
			 M75.74,36.116v-2.947h1.144c0.205,0,0.585-0.094,0.585-0.585s-0.38-0.592-0.544-0.592H75.74v-0.97
			c-0.021-0.662-0.689-1.209-1.358-1.24c-0.711-0.034-1.417,0.549-1.452,1.24c-0.001,0.024,0,0.41,0.001,0.971h-0.332
			c-0.194,0-0.585,0.102-0.585,0.584c0,0.482,0.347,0.593,0.545,0.593h0.376c0.005,1.605,0.012,3.525,0.013,3.537
			c0.057,1.334,1.42,2.256,2.528,2.256c1.345,0,2.074-1.389,2.074-1.389l0.004-0.001C76.615,37.569,75.74,37.072,75.74,36.116z
			 M116.007,29.943c0,0.722,0.621,1.307,1.388,1.307c0.766,0,1.388-0.585,1.388-1.307c0-0.723-0.622-1.309-1.388-1.309
			C116.628,28.635,116.007,29.221,116.007,29.943z M131.395,6.479c0.102,0.003,9.688,0.003,9.776,0
			c1.051-0.03,1.92-0.947,1.969-1.89c0.054-1.002-0.871-1.995-1.969-2.045c-0.101-0.003-9.688-0.003-9.776,0
			c-1.051,0.03-1.919,0.946-1.969,1.889C129.373,5.436,130.297,6.429,131.395,6.479z M40.571,12.284
			c-0.161-2.978,0.01-8.137,2.502-9.638c-0.834-0.988-2.479-1.385-3.73-1.385c-2.809,0-4.163,1.762-5.123,3.03
			c-0.317,0.419-5.041,6.557-5.041,6.557s-3.972-5.79-4.461-6.486c-0.675-0.96-1.938-2.724-4.159-3.029
			c-0.956-0.131-3.437-0.251-4.787,1.495c2.327,1.755,2.269,6.223,1.764,9.272c-1.516,9.156-5.651,10-5.651,10
			c2.118,5.39,7.573,3.26,9.115-1.037c0.999-2.793,1.643-6.329,1.792-9.261l5.987,8.652c0,0,6.779-8.625,6.778-8.617
			c-1.116,15.253,4.444,19.577,9.306,19.577c4.867,0,6.523-4.193,6.523-4.193c-2.632-0.15-4.934-1.396-6.664-3.183
			C41.701,20.919,40.756,15.732,40.571,12.284z M66.963,25.221c1.939,0,3.143-1.404,3.143-2.835v-7.317
			c0.27-1.196,0.984-2.417,2.061-2.417c1.397,0,1.475,1.464,1.482,1.464l-0.006,7.083c0.006,0.231,0.038,0.452,0.08,0.668
			c0.069,0.369,0.188,0.713,0.358,1.028c0.745,1.427,2.394,2.356,4.609,2.356c1.915,0,3.053-1.436,3.053-1.436
			s-1.123-0.373-1.627-1.643c-0.134-0.522-0.205-1.037-0.243-1.556c-0.007-0.749-0.007-1.8-0.007-2.768
			c0.1-3.341,0.763-9.22-4.048-9.22c-3.249,0-5.174,2.576-5.72,3.418c-0.078-2.348-2.043-4.052-5.047-4.052
			c-1.916,0-3.055,1.437-3.055,1.437s1.869,0.611,1.869,2.977c0.02,1.694-0.003,9.944,0,9.979
			C63.94,23.85,65.024,25.221,66.963,25.221z M62.045,16.864c0-4.633-3.987-8.388-8.903-8.388c-4.917,0-8.902,3.754-8.902,8.388
			c0,4.632,3.985,8.387,8.902,8.387C58.058,25.251,62.045,21.496,62.045,16.864z M53.207,21.688v0.004
			c-0.008,0-0.013-0.002-0.02-0.002c-0.007,0-0.013,0.002-0.018,0.002v-0.004c-1.681-0.029-2.523-1.849-2.523-4.824
			c0-2.972,1.068-4.794,2.523-4.826v-0.001c0.006,0,0.012,0,0.018,0.001c0.006-0.001,0.012-0.001,0.02-0.001v0.001
			c1.454,0.032,2.523,1.854,2.523,4.826C55.73,19.84,54.889,21.659,53.207,21.688z M62.566,28.764
			c-0.318-0.611-1.102-1.082-2.048-1.082c-0.822,0-1.309,0.615-1.309,0.615s0.48,0.159,0.696,0.703h0
			c0.058,0.224,0.089,0.444,0.105,0.666c0,0.068-0.004,7.98,0,8.075c0.021,0.665,0.674,1.213,1.345,1.245
			c0.714,0.034,1.42-0.551,1.456-1.245c0.003-0.091,0-7.216,0-7.216C62.804,29.925,62.865,29.313,62.566,28.764z M123.661,31.447
			c-2.203,0-3.989,1.682-3.989,3.758c0,2.076,1.786,3.757,3.989,3.757c2.202,0,3.989-1.681,3.989-3.757
			C127.65,33.129,125.863,31.447,123.661,31.447z M123.69,37.366v0.002c-0.004,0-0.007-0.001-0.009-0.001
			c-0.003,0-0.006,0.001-0.008,0.001v-0.002c-0.754-0.014-1.131-0.828-1.131-2.161c0-1.331,0.478-2.147,1.131-2.162v0
			c0.001,0,0.004,0,0.008,0c0.003,0,0.005,0,0.009,0v0c0.651,0.015,1.129,0.831,1.129,2.162
			C124.82,36.538,124.443,37.352,123.69,37.366z M117.525,32.01c-0.041-0.004-0.079-0.012-0.119-0.012
			c-0.624,0-1.408,0.508-1.408,1.15l0.003,2.433h-0.003c0.009,0.759-0.001,2.13,0,2.145c0.033,0.655,0.58,1.169,1.268,1.224
			c0.042,0.005,0.079,0.012,0.12,0.012c0.623,0,1.408-0.508,1.408-1.15l-0.003-2.033h0.003c-0.009-0.759,0.001-2.531,0-2.546
			C118.76,32.579,118.214,32.065,117.525,32.01z M126.359,22.172c-0.136-0.522-0.208-1.037-0.244-1.556l0.005-17.53
			c0-1.705-1.467-3.087-3.277-3.087c-1.81,0-3.276,1.382-3.276,3.087l0.005,15.525c0.016,1.398-0.13,2.827,0.571,4.112
			c0.742,1.427,2.573,2.527,4.786,2.527c1.92,0,3.057-1.436,3.057-1.436S126.864,23.442,126.359,22.172z M143.402,20.061
			c0,0-0.961,1.24-4.689,1.24c-3.728,0-4.528-2.73-4.528-2.73c5.433,0,9.99-0.343,9.99-4.487c0-4.144-4.971-5.51-7.919-5.51
			c-4.867,0-8.423,3.657-8.423,8.484c0,5.437,4.631,8.193,8.475,8.193C143.077,25.251,143.402,20.061,143.402,20.061z
			 M135.622,12.15c1.049-0.642,2.518,0.089,2.54,1.325c0.024,1.305-0.872,2.194-2.119,2.441c-0.132,0.027-2.229,0.125-2.211-0.004
			C134.023,14.589,134.359,12.922,135.622,12.15z M133.813,31.778L133.813,31.778c-1.457,0-2.319,1.154-2.563,1.531l-0.008,0.006
			c0-0.382-0.002-0.683-0.002-0.699c-0.021-0.664-0.674-1.161-1.345-1.192c-0.713-0.034-1.42,0.499-1.455,1.192
			c-0.003,0.09-0.003,5.052,0,5.119c0.021,0.664,0.674,1.212,1.345,1.244c0.713,0.033,1.419-0.551,1.455-1.244
			c0.002-0.051,0.003-1.67,0.002-3.065l0.012-0.007c0.12-0.535,0.44-1.083,0.923-1.083c0.626,0,0.66,0.656,0.663,0.656l-0.006,3.499
			c0.022,0.664,0.674,1.212,1.345,1.244c0.713,0.033,1.419-0.551,1.455-1.244l-0.004-1.828
			C135.631,34.026,135.839,31.77,133.813,31.778z M143.113,31.223c-0.747-0.035-1.487,0.577-1.524,1.304
			c-0.001,0.05-0.008,0.158-0.008,0.178c-0.353-0.464-1.131-1.246-2.356-1.246c-3.371,0-3.585,5.656-1.273,7.055
			c0.652,0.394,1.636,0.495,2.379,0.314c0.421-0.104,1.041-0.442,1.322-0.873c0.172,0.556,0.757,0.978,1.356,1.007
			c0.747,0.034,1.487-0.576,1.524-1.303c0.003-0.095,0.001-5.068,0-5.132C144.511,31.83,143.816,31.255,143.113,31.223z
			 M140.255,37.078L140.255,37.078c-0.003,0.001-0.005,0.001-0.008,0.001c-0.004,0-0.005,0-0.01,0v-0.001
			c-0.753-0.011-1.13-0.723-1.13-1.884c0-1.16,0.478-1.87,1.13-1.883V33.31c0.004,0,0.006,0.001,0.01,0.001
			c0.003,0,0.005-0.001,0.008-0.001v0.001c0.653,0.013,1.131,0.724,1.131,1.883C141.386,36.355,141.008,37.067,140.255,37.078z
			 M160.142,19.279c0,0-1.342,1.23-4.447,1.23h-3.733c0.275,0,3.037-2.194,3.952-2.925c2.398-1.918,6.711-4.685,5.454-8.269
			l0.003,0.025c-0.23-0.853-0.928-1.346-0.928-1.346s-0.261,0.697-1.148,1.009c-0.362,0.082-0.724,0.145-1.086,0.165
			c-0.298,0.005-10.435,0-10.435,0c-1.371-0.002-2.52,1.037-2.539,2.263c-0.016,1.236,1.069,2.227,2.458,2.244l5.913,0.036
			c-2.741,1.44-6.015,3.146-7.677,5.75c-0.949,1.495-1.965,3.8-1.58,5.567c1.314-1.097,4.762-2.159,7.387-1.643
			c0.983,0.193,2.028,0.666,2.877,1.167C159.537,27.454,162.495,21.78,160.142,19.279z M148.692,37.668L148.692,37.668
			c-0.058-0.224-0.089-0.444-0.105-0.666c0-0.067,0.004-7.979,0.001-8.073c-0.021-0.665-0.674-1.214-1.346-1.246
			c-0.714-0.033-1.42,0.551-1.456,1.246c-0.003,0.09,0,7.216,0,7.216c0.007,0.598-0.055,1.21,0.244,1.76
			c0.319,0.611,1.102,1.081,2.049,1.081c0.822,0,1.308-0.615,1.308-0.615S148.909,38.211,148.692,37.668z M90.545,25.056
			c1.146-0.281,2.953-1.343,3.244-2.609c0.041,0.093,0.085,0.185,0.136,0.277c0.743,1.427,2.574,2.527,4.787,2.527
			c1.92,0,3.057-1.436,3.057-1.436s-1.122-0.373-1.627-1.643c-0.135-0.522-0.208-1.037-0.244-1.556l0.005-17.53
			C99.902,1.382,98.435,0,96.625,0c-1.81,0-3.276,1.382-3.276,3.087l-0.013,8.303c-0.788-1.034-2.524-2.781-5.259-2.781
			c-7.525,0-8,12.625-2.84,15.747C86.691,25.236,88.885,25.462,90.545,25.056z M90.338,12.745v-0.002
			c0.008,0,0.013,0.002,0.02,0.002c0.006,0,0.012-0.002,0.018-0.002v0.002c1.457,0.029,2.524,1.615,2.524,4.204
			c0,2.591-0.843,4.179-2.524,4.203v0.002c-0.007,0-0.012,0-0.018,0c-0.007,0-0.011,0-0.02,0v-0.002
			c-1.681-0.024-2.522-1.612-2.522-4.203C87.816,14.36,88.882,12.774,90.338,12.745z M98.016,31.778
			c-1.456,0-2.318,1.154-2.562,1.531l-0.008,0.006c0-0.382-0.001-0.683-0.001-0.699c-0.022-0.664-0.674-1.161-1.345-1.192
			c-0.713-0.034-1.42,0.499-1.455,1.192c-0.003,0.09-0.003,5.052,0,5.119c0.022,0.664,0.674,1.212,1.345,1.244
			c0.713,0.033,1.419-0.551,1.455-1.244c0.001-0.051,0.002-1.67,0.002-3.065l0.011-0.007c0.12-0.535,0.44-1.083,0.924-1.083
			c0.626,0,0.66,0.656,0.663,0.656l-0.006,3.499c0.022,0.664,0.674,1.212,1.345,1.244c0.713,0.033,1.419-0.551,1.455-1.244
			l-0.004-1.828C99.834,34.026,100.043,31.77,98.016,31.778z M112.5,21.302c-3.728,0-4.528-2.73-4.528-2.73
			c5.433,0,9.99-0.343,9.99-4.487c0-4.144-4.971-5.51-7.919-5.51c-4.867,0-8.423,3.657-8.423,8.484c0,5.437,4.631,8.193,8.475,8.193
			c6.77,0,7.095-5.189,7.095-5.189S116.228,21.302,112.5,21.302z M109.41,12.15c1.049-0.642,2.518,0.089,2.54,1.325
			c0.024,1.305-0.872,2.194-2.119,2.441c-0.132,0.027-2.229,0.125-2.211-0.004C107.81,14.589,108.147,12.922,109.41,12.15z
			 M90.415,31.688L90.415,31.688c-0.832,0.032-1.243,0.616-1.809,1.349c-0.004,0.006,0-0.338,0-0.352
			c-0.022-0.664-0.674-1.213-1.344-1.244c-0.714-0.034-1.42,0.551-1.455,1.244v5.066h-0.003c0.021,0.664,0.673,1.213,1.344,1.244
			c0.707,0.033,1.405-0.541,1.453-1.225h0.006l0-3.209c0.042-0.471,0.26-1.058,0.662-1.055c0.568,0.004-0.019,1.299,1.285,1.299
			C92.424,34.805,92.623,31.602,90.415,31.688z M107.346,31.223c-0.747-0.035-1.487,0.577-1.525,1.304
			c-0.001,0.05-0.007,0.159-0.007,0.178c-0.354-0.464-1.131-1.246-2.357-1.246c-3.371,0-3.585,5.656-1.273,7.055
			c0.652,0.394,1.635,0.495,2.379,0.314c0.42-0.104,1.04-0.442,1.321-0.873c0.173,0.556,0.757,0.978,1.357,1.007
			c0.747,0.034,1.487-0.576,1.525-1.303c0.003-0.095,0.002-5.068,0-5.132C108.743,31.83,108.048,31.255,107.346,31.223z
			 M104.488,37.078v0.001c-0.003,0-0.006,0-0.008,0c-0.004,0-0.005,0-0.009,0v-0.001c-0.753-0.011-1.13-0.723-1.13-1.884
			c0-1.16,0.477-1.87,1.13-1.884V33.31c0.004,0,0.006,0.001,0.009,0.001c0.002,0,0.005-0.001,0.008-0.001v0.001
			c0.653,0.013,1.132,0.724,1.132,1.884C105.619,36.355,105.241,37.067,104.488,37.078z M113.206,36.116v-2.947h1.144
			c0.205,0,0.585-0.094,0.585-0.585c0-0.491-0.38-0.593-0.544-0.593h-1.185v-0.97c-0.022-0.662-0.689-1.209-1.358-1.241
			c-0.712-0.034-1.417,0.549-1.452,1.241c-0.001,0.024,0,0.41,0.001,0.971h-0.332c-0.194,0-0.585,0.102-0.585,0.584
			c0,0.482,0.347,0.593,0.544,0.593h0.376c0.005,1.605,0.012,3.525,0.013,3.537c0.057,1.334,1.42,2.256,2.528,2.256
			c1.345,0,2.074-1.389,2.074-1.389l0.004-0.001C114.079,37.569,113.206,37.072,113.206,36.116z"/>
	</g>
</g>
</svg>
