<?xml version="1.0" encoding="utf-8"?>
<!-- Generator: Adobe Illustrator 17.0.2, SVG Export Plug-In . SVG Version: 6.00 Build 0)  -->
<!DOCTYPE svg PUBLIC "-//W3C//DTD SVG 1.1//EN" "http://www.w3.org/Graphics/SVG/1.1/DTD/svg11.dtd">
<svg version="1.1" id="Layer_1" xmlns="http://www.w3.org/2000/svg" xmlns:xlink="http://www.w3.org/1999/xlink" x="0px" y="0px"
	 width="63px" height="63px" viewBox="0 0 63 63" enable-background="new 0 0 63 63" xml:space="preserve">
<g>
	<path fill="#FDF5A6" d="M31.5,63C14.131,63,0,48.869,0,31.5C0,14.131,14.131,0,31.5,0C48.869,0,63,14.131,63,31.5
		C63,48.869,48.869,63,31.5,63z M31.5,2C15.233,2,2,15.233,2,31.5C2,47.766,15.233,61,31.5,61C47.766,61,61,47.766,61,31.5
		C61,15.233,47.766,2,31.5,2z"/>
</g>
<g>
	<path fill="#FDF5A6" d="M38.634,30.322v-7.068c0-3.902-3.194-7.068-7.133-7.068c-3.941,0-7.135,3.166-7.135,7.068v7.068h-4.756
		v16.492h23.781V30.322H38.634z M25.554,23.254c0-3.247,2.667-5.89,5.946-5.89c3.278,0,5.944,2.642,5.944,5.89v7.068H25.554V23.254z
		 M42.201,45.636H20.798V31.5h21.403V45.636z"/>
</g>
</svg>
