<?xml version="1.0" encoding="utf-8"?>
<!-- Generator: Adobe Illustrator 17.0.2, SVG Export Plug-In . SVG Version: 6.00 Build 0)  -->
<!DOCTYPE svg PUBLIC "-//W3C//DTD SVG 1.1//EN" "http://www.w3.org/Graphics/SVG/1.1/DTD/svg11.dtd">
<svg version="1.1" id="Layer_1" xmlns="http://www.w3.org/2000/svg" xmlns:xlink="http://www.w3.org/1999/xlink" x="0px" y="0px"
	 width="62.066px" height="61.374px" viewBox="0 0 62.066 61.374" enable-background="new 0 0 62.066 61.374" xml:space="preserve">
<g>
	<g>
		<path fill="#FDF5A6" d="M17.929,33.383h2.189v10.785h2.115V33.383h2.188v-1.836h-6.492V33.383z M30.92,24.422
			c0.287,0,0.514-0.076,0.682-0.231c0.169-0.159,0.254-0.376,0.254-0.649v-5.589c0-0.224-0.086-0.407-0.259-0.542
			c-0.171-0.14-0.398-0.209-0.677-0.209c-0.258,0-0.466,0.069-0.629,0.209c-0.16,0.136-0.24,0.319-0.24,0.542v5.589
			c0,0.281,0.074,0.497,0.225,0.649C30.425,24.346,30.64,24.422,30.92,24.422z M35.583,34.744c-0.292,0-0.58,0.074-0.867,0.221
			c-0.281,0.148-0.55,0.366-0.803,0.649v-4.067h-1.897v12.621h1.897v-0.713c0.245,0.288,0.514,0.497,0.802,0.633
			c0.284,0.135,0.613,0.202,0.982,0.202c0.554,0,0.983-0.173,1.274-0.526c0.295-0.354,0.442-0.859,0.442-1.517v-5.168
			c0-0.763-0.156-1.344-0.471-1.739C36.631,34.944,36.177,34.744,35.583,34.744z M35.479,41.99c0,0.3-0.055,0.511-0.162,0.642
			c-0.109,0.133-0.276,0.197-0.507,0.197c-0.158,0-0.307-0.036-0.453-0.1c-0.144-0.064-0.294-0.178-0.444-0.328v-5.801
			c0.127-0.131,0.257-0.226,0.386-0.285c0.131-0.064,0.264-0.093,0.398-0.093c0.253,0,0.448,0.081,0.585,0.24
			c0.132,0.164,0.197,0.402,0.197,0.718V41.99z M28.728,41.933c-0.176,0.199-0.369,0.364-0.582,0.497
			c-0.211,0.131-0.388,0.195-0.523,0.195c-0.176,0-0.305-0.047-0.386-0.147c-0.076-0.098-0.116-0.257-0.116-0.476v-7.144h-1.876
			v7.786c0,0.556,0.11,0.965,0.33,1.248c0.222,0.276,0.546,0.414,0.981,0.414c0.353,0,0.716-0.095,1.09-0.295
			c0.375-0.202,0.735-0.488,1.083-0.863v1.02h1.877v-9.311h-1.877V41.933z M30.837,0.876c-16.696,0-30.232,13.425-30.232,29.984
			c0,16.562,13.536,29.984,30.232,29.984c16.696,0,30.232-13.423,30.232-29.984C61.069,14.301,47.533,0.876,30.837,0.876z
			 M35.722,15.685h2.109v7.865c0,0.245,0.048,0.418,0.137,0.526c0.086,0.109,0.231,0.167,0.429,0.167
			c0.155,0,0.351-0.074,0.59-0.217c0.236-0.147,0.454-0.331,0.65-0.556v-7.784h2.115v10.257h-2.115V24.81
			c-0.386,0.416-0.791,0.737-1.215,0.954c-0.421,0.216-0.828,0.328-1.225,0.328c-0.49,0-0.857-0.155-1.105-0.461
			c-0.246-0.302-0.369-0.759-0.369-1.375V15.685z M27.876,18.03c0-0.792,0.284-1.425,0.852-1.9c0.569-0.466,1.334-0.704,2.293-0.704
			c0.875,0,1.591,0.25,2.152,0.744c0.555,0.495,0.834,1.137,0.834,1.922v5.296c0,0.88-0.274,1.567-0.819,2.064
			c-0.55,0.497-1.303,0.747-2.264,0.747c-0.923,0-1.664-0.257-2.218-0.768c-0.554-0.518-0.832-1.213-0.832-2.083V18.03z
			 M22.121,12.039l1.545,5.555h0.15l1.471-5.555h2.417l-2.768,8.136v5.767h-2.379v-5.51l-2.832-8.393H22.121z M49.793,41.303
			c0,3.71-3.033,6.721-6.775,6.721H19.476c-3.743,0-6.776-3.011-6.776-6.721V35.9c0-3.713,3.033-6.721,6.776-6.721h23.542
			c3.742,0,6.775,3.009,6.775,6.721V41.303z M41.248,34.627c-0.841,0-1.523,0.252-2.054,0.763c-0.531,0.506-0.798,1.168-0.798,1.969
			v4.186c0,0.899,0.245,1.603,0.725,2.112c0.482,0.511,1.145,0.768,1.987,0.768c0.935,0,1.637-0.24,2.105-0.721
			c0.475-0.485,0.706-1.203,0.706-2.159v-0.478H41.99v0.423c0,0.549-0.066,0.904-0.187,1.063c-0.123,0.159-0.342,0.24-0.652,0.24
			c-0.3,0-0.512-0.093-0.637-0.28c-0.122-0.193-0.182-0.53-0.182-1.023v-1.753h3.587V37.36c0-0.88-0.228-1.555-0.691-2.029
			C42.769,34.863,42.108,34.627,41.248,34.627z M41.99,38.29h-1.658v-0.942c0-0.39,0.061-0.673,0.193-0.835
			c0.131-0.174,0.344-0.257,0.644-0.257c0.284,0,0.496,0.083,0.623,0.257c0.131,0.162,0.198,0.445,0.198,0.835V38.29z"/>
	</g>
</g>
</svg>
